<svg width="56" height="87" viewBox="0 0 56 87" fill="none" xmlns="http://www.w3.org/2000/svg">
<g clip-path="url(#clip0_135_2)">
<path d="M12.4444 24.8571C12.4444 18.002 18.025 12.4286 24.8889 12.4286H31.1111C37.975 12.4286 43.5556 18.002 43.5556 24.8571V25.5563C43.5556 29.7897 41.3972 33.7319 37.8389 36.004L29.6333 41.2667C24.7333 44.4127 21.7778 49.8308 21.7778 55.6373V55.9286C21.7778 59.3658 24.5583 62.1429 28 62.1429C31.4417 62.1429 34.2222 59.3658 34.2222 55.9286V55.6567C34.2222 54.0643 35.0389 52.5884 36.3611 51.7339L44.5667 46.4712C51.6833 41.8882 56 34.0232 56 25.5563V24.8571C56 11.1275 44.8583 0 31.1111 0H24.8889C11.1417 0 0 11.1275 0 24.8571C0 28.2944 2.78056 31.0714 6.22222 31.0714C9.66389 31.0714 12.4444 28.2944 12.4444 24.8571ZM28 87C30.0628 87 32.0411 86.1816 33.4997 84.7248C34.9583 83.2681 35.7778 81.2923 35.7778 79.2321C35.7778 77.172 34.9583 75.1962 33.4997 73.7394C32.0411 72.2827 30.0628 71.4643 28 71.4643C25.9372 71.4643 23.9589 72.2827 22.5003 73.7394C21.0417 75.1962 20.2222 77.172 20.2222 79.2321C20.2222 81.2923 21.0417 83.2681 22.5003 84.7248C23.9589 86.1816 25.9372 87 28 87Z" fill="#EE6352"/>
</g>
<defs>
<clipPath id="clip0_135_2">
<rect width="56" height="87" fill="white"/>
</clipPath>
</defs>
</svg>
